<svg xmlns="http://www.w3.org/2000/svg" width="48" height="48" viewBox="0 0 48 48">
  <defs>
    <linearGradient id="heartGrad" x1="0%" y1="0%" x2="100%" y2="100%">
      <stop offset="0%" style="stop-color:#fa709a;stop-opacity:1" />
      <stop offset="100%" style="stop-color:#fee140;stop-opacity:1" />
    </linearGradient>
  </defs>
  <circle cx="24" cy="24" r="22" fill="#fff3e0"/>
  <path d="M24 38l-2.1-1.9C14.4 29.9 10 25.9 10 21c0-4 3-7 7-7 2.2 0 4.3 1 5.7 2.6h2.6C26.7 15 28.8 14 31 14c4 0 7 3 7 7 0 4.9-4.4 8.9-11.9 15.1z" fill="url(#heartGrad)"/>
  <path d="M24 20c1-2 3-3 5-3 2.2 0 4 1.8 4 4 0 .5-.1 1-.2 1.5" fill="white" opacity="0.4"/>
</svg>
